<?xml version="1.0" encoding="UTF-8" standalone="no"?>
<!DOCTYPE svg PUBLIC "-//W3C//DTD SVG 1.1//EN" "http://www.w3.org/Graphics/SVG/1.1/DTD/svg11.dtd">
<svg width="100%" height="100%" viewBox="0 0 512 512" version="1.1" xmlns="http://www.w3.org/2000/svg" xmlns:xlink="http://www.w3.org/1999/xlink" xml:space="preserve" xmlns:serif="http://www.serif.com/" style="fill-rule:evenodd;clip-rule:evenodd;stroke-linejoin:round;stroke-miterlimit:1.41421;">
    <path d="M504,256C504,392.967 392.967,504 256,504C119.033,504 8,392.967 8,256C8,119.033 119.033,8 256,8C392.967,8 504,119.033 504,256ZM227.314,387.314L411.314,203.314C417.562,197.066 417.562,186.935 411.314,180.687L388.687,158.06C382.439,151.811 372.308,151.811 366.059,158.06L216,308.118L145.941,238.059C139.693,231.811 129.562,231.811 123.313,238.059L100.686,260.686C94.438,266.934 94.438,277.065 100.686,283.313L204.686,387.313C210.935,393.562 221.065,393.562 227.314,387.314Z" style="fill:rgb(255,122,89);fill-rule:nonzero;stroke:rgb(255,122,89);stroke-width:1px;"/>
</svg>
